<svg width="150" height="150" viewBox="0 0 150 150" fill="none" xmlns="http://www.w3.org/2000/svg">
<path fill-rule="evenodd" clip-rule="evenodd" d="M99.5557 3.14098C99.6606 2.99144 99.8665 2.9551 100.016 3.05981L110.241 10.2192C110.39 10.3239 110.427 10.53 110.322 10.6795L96.091 31.0033C103.009 33.2136 107.723 35.5977 107.723 35.5977C107.723 35.5977 96.2018 55.4152 76.6608 55.4152C57.1198 55.4152 43.2342 36.9449 43.2342 36.9449C43.2342 36.9449 48.1578 33.8028 55.4562 31.1079L39.8469 12.5056C39.7296 12.3657 39.7479 12.1572 39.8877 12.0399L49.4493 4.01662C49.5894 3.89927 49.7978 3.91751 49.9151 4.05737L69.6791 27.6112C71.3713 27.4198 73.0954 27.3128 74.8352 27.3128C77.3358 27.3128 79.8333 27.5029 82.2715 27.8255L99.5557 3.14098ZM103.422 56.3537C108.636 52.6294 116.527 42.9088 116.527 42.9088C116.527 42.9088 136.683 58.881 136.683 92.748C136.683 126.615 101.837 146.998 101.837 146.998C101.837 146.998 85.1883 130.184 81.1012 108.871C77.0143 87.5575 87.1469 63.8915 87.1469 63.8915C87.1469 63.8915 98.2068 60.078 103.422 56.3537ZM47.2609 56.3537C42.0462 52.6294 34.1555 42.9088 34.1555 42.9088C34.1555 42.9088 14 58.881 14 92.748C14 126.615 48.8457 146.998 48.8457 146.998C48.8457 146.998 65.4943 130.184 69.5815 108.871C73.6683 87.5575 63.5357 63.8915 63.5357 63.8915C63.5357 63.8915 52.4758 60.078 47.2609 56.3537Z" fill="#91C12F"/>
</svg>
