<svg width="150" height="150" viewBox="0 0 150 150" fill="none" xmlns="http://www.w3.org/2000/svg">
<path fill-rule="evenodd" clip-rule="evenodd" d="M67.6095 130.364C70.3452 130.783 73.1471 131 76.0001 131C106.376 131 131 106.376 131 76.0001C131 45.6243 106.376 21 76.0001 21C73.9621 21 71.9498 21.1108 69.9695 21.3268C85.0375 32.7425 94.9999 52.5174 94.9999 75C94.9999 98.6363 83.9887 119.28 67.6095 130.364ZM74.9999 147C114.764 147 147 114.765 147 75C147 35.2355 114.764 3 74.9999 3C35.2354 3 3 35.2355 3 75C3 114.765 35.2354 147 74.9999 147Z" fill="#5A5465"/>
</svg>
