<svg width="150" height="150" viewBox="0 0 150 150" fill="none" xmlns="http://www.w3.org/2000/svg">
<path fill-rule="evenodd" clip-rule="evenodd" d="M81.9474 74.6853C82.9234 74.0902 83.7514 72.8431 84.4191 71.4571C93.2067 75.0487 99.3821 83.5357 99.3821 93.4331C99.3821 106.582 88.4837 117.241 75.0399 117.241C69.5213 117.241 64.4315 115.444 60.3486 112.417C59.0093 111.783 57.9073 111.174 57.0056 110.675C55.607 109.902 54.6898 109.395 54.1155 109.474C52.4367 109.706 52.9241 111.25 53.3671 112.653C53.6678 113.607 53.9482 114.495 53.5142 114.861C53.0603 115.244 51.5899 113.842 49.8717 112.204C47.5328 109.974 44.735 107.307 43.4156 108.108C42.3725 108.742 43.3853 110.46 44.625 112.564L44.717 112.72C45.2407 113.609 45.8476 114.515 46.4014 115.341C47.5272 117.021 48.434 118.374 47.9803 118.603C47.4319 118.88 43.6108 116.301 40.3908 112.72C39.1479 111.338 37.9442 109.84 36.8254 108.449V108.448C34.3765 105.401 32.3363 102.863 31.1911 103.164C29.8134 103.525 30.8556 106.367 32.387 109.102C33.103 110.38 33.9454 111.683 34.6747 112.81V112.81C35.8089 114.564 36.6698 115.894 36.3577 116.058C35.9363 116.278 32.2292 112.663 29.7113 108.108C28.2157 105.402 26.9599 102.412 25.9433 99.991C24.8408 97.3656 24.0195 95.41 23.4787 95.2132C21.5998 94.5294 21.5998 98.3603 22.3533 103.889C22.4516 104.611 22.598 105.367 22.7783 106.138C30.0863 129.783 52.536 147 79.097 147C111.586 147 137.924 121.241 137.924 89.4653C137.924 59.2219 114.065 34.4288 83.7525 32.1077C83.7908 30.683 84.5344 27.8577 84.5344 27.8577C84.5344 27.8577 89.8857 14.9101 90.1687 12.1434C90.1872 11.9598 90.2094 11.7602 90.2333 11.5477C90.5666 8.55832 91.1868 3 86.405 3C83.8512 3 82.6638 4.89974 81.3056 7.07247V7.0725C80.7842 7.9066 80.2374 8.78095 79.5788 9.60347C74.8346 15.5279 66.8573 22.9262 62.3339 26.8677C52.7731 35.1986 43.3928 42.0454 37.922 46.0386L37.9217 46.0388C35.4335 47.8549 33.7541 49.0808 33.2344 49.5874C29.3177 53.4056 15.2743 78.7367 15.2743 78.7367C15.2743 78.7367 10.7328 86.8637 12.347 88.5121C13.9612 90.1602 17.854 89.7825 17.854 89.7825C17.854 89.7825 70.1498 77.7852 74.8318 76.8391C76.0924 76.5843 76.9823 76.4372 77.6654 76.3244C79.5202 76.0181 79.8533 75.963 81.9474 74.6853ZM44.9723 59.268C42.1652 61.9362 37.5097 68.3051 37.5097 68.3051C37.5097 68.3051 46.162 68.8381 50.9273 64.3086C55.6928 59.7787 54.6009 52.0593 54.6009 52.0593C54.6009 52.0593 47.7792 56.5998 44.9723 59.268Z" fill="#0B6DC3"/>
</svg>
