<svg width="150" height="150" viewBox="0 0 150 150" fill="none" xmlns="http://www.w3.org/2000/svg">
<path fill-rule="evenodd" clip-rule="evenodd" d="M31.8917 117.181L54.9885 110.484L74.9376 146.96C74.9637 147.007 75.0315 147.007 75.0574 146.96L95.0064 110.484L118.104 117.181C118.155 117.196 118.203 117.148 118.188 117.096L111.49 94.4566L146.96 75.0574C147.007 75.0315 147.007 74.9637 146.96 74.9378L111.197 55.3786L118.188 31.7508C118.203 31.699 118.155 31.6509 118.104 31.6658L94.4648 38.5202L75.0574 3.03549C75.0315 2.98817 74.9637 2.98817 74.9378 3.03549L55.5305 38.5202L31.8917 31.6658C31.8399 31.6509 31.7918 31.699 31.8073 31.7508L38.7978 55.3786L3.03549 74.9378C2.98817 74.9637 2.98817 75.0315 3.03549 75.0574L38.5053 94.4566L31.8073 117.096C31.7918 117.148 31.8399 117.196 31.8917 117.181ZM49.8146 75.2464L66.1775 84.1955L75.1266 100.558C75.1524 100.606 75.2205 100.606 75.2464 100.558L84.1955 84.1955L100.558 75.2464C100.605 75.2205 100.605 75.1524 100.558 75.1266L84.1955 66.1775L75.2464 49.8149C75.2205 49.7674 75.1524 49.7674 75.1266 49.8149L66.1775 66.1775L49.8146 75.1266C49.7674 75.1524 49.7674 75.2205 49.8146 75.2464Z" fill="#EC8FE6"/>
</svg>
