<svg width="150" height="150" viewBox="0 0 150 150" fill="none" xmlns="http://www.w3.org/2000/svg">
<path fill-rule="evenodd" clip-rule="evenodd" d="M28.0344 14.9716C29.7772 8.09102 36.0105 3 43.4327 3C49.0001 3 53.8986 5.86445 56.7347 10.2H61.379C64.2643 7.23889 68.2955 5.4 72.7564 5.4C79.2966 5.4 84.9137 9.35293 87.3488 15H91.2371C93.6735 13.479 96.5524 12.6 99.6363 12.6C106.177 12.6 111.794 16.5529 114.229 22.2H124.802C124.893 22.2 124.977 22.2243 125.05 22.2668C125.533 22.2226 126.022 22.2 126.516 22.2C135.289 22.2 142.4 29.3113 142.4 38.0837V85.7117L142.4 85.8L142.4 85.8883V86.5743C142.4 86.8648 142.392 87.1542 142.376 87.4422C141.421 120.483 111.711 147 75.1999 147C38.0864 147 8 119.6 8 85.8C8 69.485 15.0101 54.6608 26.4369 43.6898C26.4084 59.5954 26.6771 76.0389 27.9155 75.7568C31.2316 75.0008 28.6407 25.7361 28.0344 14.9716Z" fill="#CE416B"/>
</svg>
