<svg width="150" height="150" viewBox="0 0 150 150" fill="none" xmlns="http://www.w3.org/2000/svg">
<path fill-rule="evenodd" clip-rule="evenodd" d="M102.073 114.205C103.852 107.699 100.398 94.3247 100.398 94.3247C100.398 94.3247 97.8935 105.22 93.9796 109.247C90.6406 112.682 86.5499 115.064 80.683 115.69C85.4797 113.361 88.7785 108.503 88.7785 102.887C88.7785 95.005 82.2782 88.615 74.2598 88.615C66.2413 88.615 59.7408 95.005 59.7408 102.887C59.7408 105.04 60.226 107.082 61.0942 108.912C56.0789 104.917 55.2903 98.5108 55.2903 98.5108C55.2903 98.5108 49.6901 121.762 65.1211 132.699C80.5519 143.636 110.78 134.235 110.78 134.235C110.78 134.235 67.5216 164.673 35.4664 131.545C7.85351 103.008 28.2594 65.4383 28.2594 65.4383C28.2594 65.4383 27.3781 68.9236 27.3781 72.9694C27.3781 77.0152 29.5717 80.0934 29.5717 80.0934C29.5717 80.0934 36.115 66.3012 41.2073 60.6923C46.0268 55.3839 52.0683 51.0786 57.2866 47.3599C61.3034 44.4973 64.8326 41.9824 66.9403 39.6252C78.5494 26.6443 71.4313 3 71.4313 3C71.4313 3 84.5178 14.5369 88.1713 29.4369C89.564 35.1165 88.6679 41.5788 87.8669 47.3576C86.5664 56.739 85.5154 64.3195 94.9106 63.8276C110.093 63.0325 96.8999 39.6252 96.8999 39.6252C96.8999 39.6252 131.339 57.7265 128.767 89.3845C126.193 121.043 91.1224 128.24 91.1224 128.24C91.1224 128.24 100.293 120.71 102.073 114.205Z" fill="#FF9D55"/>
</svg>
