<svg width="150" height="150" viewBox="0 0 150 150" fill="none" xmlns="http://www.w3.org/2000/svg">
<path fill-rule="evenodd" clip-rule="evenodd" d="M53.2628 137.8C74.3573 137.8 92.417 126.076 99.8726 109.456C99.9638 109.254 69.9395 117.259 70.8968 114.429C71.3243 113.165 89.7293 106.442 103.139 98.5996C110.846 94.092 114.395 84.55 114.395 84.55C114.395 84.55 101.41 90.8542 94.8461 92.4534C81.6184 95.6765 69.9743 95.3295 69.9743 94.9937C69.9743 94.2675 89.3089 90.5938 116.182 74.218C128.822 66.5154 132.255 53.2477 132.255 53.2477C132.255 53.2477 118.358 61.5255 109.957 64.2584C90.0348 70.7392 71.8542 72.6922 71.8542 71.8153C71.8542 69.9377 87.8537 65.5381 104.817 57.3185C113.637 53.0449 121.275 47.4616 130.127 41.2524C144.611 31.0934 147 13 147 13C147 13 132.714 22.2138 125.743 25.2736C96.9772 37.8993 71.5769 44.5222 53.2628 45.956C25.617 48.1205 3 67.4095 3 92.4534C3 117.498 25.5033 137.8 53.2628 137.8Z" fill="#89AAE3"/>
</svg>
