<svg width="150" height="150" viewBox="0 0 150 150" fill="none" xmlns="http://www.w3.org/2000/svg">
<path fill-rule="evenodd" clip-rule="evenodd" d="M106.768 146.501C93.7788 147.166 78.9082 147.166 73.8548 146.501C34.4353 141.315 3 112.494 3 73.5375C3 34.5807 35.2355 3 75 3C114.765 3 147 34.5807 147 73.5375C147 91.6559 140.027 108.179 128.567 120.671C125.455 124.063 129.725 126.443 134.063 128.86C138.318 131.232 142.638 133.639 140.127 137.075C137.36 140.861 122.36 145.703 106.768 146.501ZM64.875 64.7203C64.875 70.8071 59.8381 75.7417 53.625 75.7417C47.4119 75.7417 42.375 70.8071 42.375 64.7203C42.375 60.638 44.6405 57.0742 48.0068 55.1693C48.2005 60.4768 52.5644 64.72 57.9194 64.72H64.875V64.7203ZM99.7433 55.1693C99.5495 60.4768 95.1856 64.72 89.8306 64.72H82.875V64.7203C82.875 70.8071 87.9119 75.7417 94.125 75.7417C100.338 75.7417 105.375 70.8071 105.375 64.7203C105.375 60.638 103.11 57.0742 99.7433 55.1693Z" fill="#5269AD"/>
</svg>
