<svg width="150" height="150" viewBox="0 0 150 150" fill="none" xmlns="http://www.w3.org/2000/svg">
<path fill-rule="evenodd" clip-rule="evenodd" d="M31.595 126.995C31.1007 126.53 30.6119 126.056 30.1288 125.573C4.62374 100.068 4.62375 58.7163 30.1288 33.2114C55.6337 7.70626 136.903 6 136.903 6C136.903 6 147.996 100.068 122.491 125.573C99.8389 148.225 64.6877 150.759 39.2393 133.176L59.7447 108.012L92.5244 100.935L65.7665 98.2597L82.7715 80.9454L102.128 76.705L86.8221 72.1721L102.128 44.5601L80.3567 68.9805L71.9493 57.1165L74.9089 76.705L59.7447 93.8L52.7154 72.1718V100.935L31.595 126.995Z" fill="#63BC5A"/>
</svg>
