<svg width="150" height="150" viewBox="0 0 150 150" fill="none" xmlns="http://www.w3.org/2000/svg">
<path fill-rule="evenodd" clip-rule="evenodd" d="M34.7149 126.993C34.6758 126.993 34.6485 126.955 34.6614 126.918L71.425 23.0377C71.4332 23.0151 71.4546 23 71.4785 23H110.725C110.749 23 110.77 23.0152 110.778 23.0379L146.996 126.918C147.009 126.955 146.982 126.993 146.943 126.993H35.8196H34.7149ZM3.05662 127.4C3.01713 127.4 2.98979 127.36 3.00365 127.324L30.3804 54.2345C30.3887 54.2123 30.4098 54.1977 30.4334 54.1977H54.2207C54.2601 54.1977 54.2873 54.2368 54.2738 54.2736L27.8013 127.363C27.7932 127.385 27.7719 127.4 27.7481 127.4H3.05662Z" fill="#D97845"/>
</svg>
