<svg width="150" height="150" viewBox="0 0 150 150" fill="none" xmlns="http://www.w3.org/2000/svg">
<path fill-rule="evenodd" clip-rule="evenodd" d="M111.381 14.1592L111.824 53.0702L77.8858 69.3621L77.4673 32.6227L111.381 14.1592Z" fill="#73CEC0"/>
<path fill-rule="evenodd" clip-rule="evenodd" d="M145.403 75.4733L111.806 94.6903L78.1895 75.4429L111.789 57.7939L145.403 75.4733Z" fill="#73CEC0"/>
<path fill-rule="evenodd" clip-rule="evenodd" d="M72.2135 75.4733L38.6168 94.6903L5 75.4429L38.5994 57.7939L72.2135 75.4733Z" fill="#73CEC0"/>
<path fill-rule="evenodd" clip-rule="evenodd" d="M38.2393 14L73.1103 31.2704L72.2188 68.9061L39.2939 52.5998L38.2393 14Z" fill="#73CEC0"/>
<path fill-rule="evenodd" clip-rule="evenodd" d="M112.33 136.358L77.459 119.087L78.3506 81.4512L111.275 97.7578L112.33 136.358Z" fill="#73CEC0"/>
<path fill-rule="evenodd" clip-rule="evenodd" d="M39.4432 136.708L39 97.7969L72.9387 81.5049L73.3572 118.244L39.4432 136.708Z" fill="#73CEC0"/>
</svg>
