<svg width="150" height="150" viewBox="0 0 150 150" fill="none" xmlns="http://www.w3.org/2000/svg">
<path fill-rule="evenodd" clip-rule="evenodd" d="M123.325 113.658C137.866 102.03 147 85.2308 147 66.5484C147 31.4515 114.765 3 75 3C35.2355 3 3 31.4515 3 66.5484C3 84.5563 11.4864 100.815 25.1218 112.378C24.2954 115.232 23.8421 118.335 23.8421 121.581C23.8421 135.619 32.3251 147 42.7896 147C49.5891 147 55.5521 142.195 58.8948 134.978C62.2374 142.195 68.2005 147 75 147C81.1982 147 86.7011 143.007 90.158 136.835C93.6148 143.007 99.1178 147 105.316 147C115.78 147 124.263 135.619 124.263 121.581C124.263 118.814 123.934 116.151 123.325 113.658ZM116.684 67.8087C116.684 85.627 97.5973 100.072 74.0527 100.072C50.5079 100.072 31.4212 85.627 31.4212 67.8087C31.4212 49.9904 50.5079 35.5457 74.0527 35.5457C97.5973 35.5457 116.684 49.9904 116.684 67.8087Z" fill="#B567CE"/>
</svg>
