<svg width="150" height="150" viewBox="0 0 150 150" fill="none" xmlns="http://www.w3.org/2000/svg">
<path fill-rule="evenodd" clip-rule="evenodd" d="M131.166 122.583C131.166 122.583 113.009 137.146 76.8761 131.119C49.4627 126.547 34.8416 96.328 34.8416 80.0847C34.8416 41.5732 63.3452 32.8091 82.6156 32.8091C101.886 32.8091 114.457 51.5966 114.457 66.1429C114.457 80.6891 104.169 93.4123 88.1579 93.4123C72.1475 93.4123 67.4056 82.1721 67.4056 71.8382C67.4056 61.5045 75.7663 57.8637 83.3913 57.8637C91.0163 57.8637 93.6271 64.3735 93.6271 69.9684C93.6271 75.5636 89.286 77.5672 85.6652 77.5672C82.0444 77.5672 81.6864 75.7405 80.3006 73.8207C78.9146 71.9012 82.068 64.6348 76.8761 64.6348C71.6843 64.6348 70.7165 72.9882 70.7165 72.9882C70.7165 72.9882 72.6093 89.1131 88.1579 88.835C103.707 88.5565 111.083 76.5359 108.939 64.6348C106.796 52.7334 95.2457 40.087 74.9749 42.6425C54.7041 45.1979 46.4277 65.6796 50.0758 87.5676C53.7239 109.456 79.9457 122.138 100.563 117.575C121.18 113.013 141.714 98.0867 141.714 60.2437C141.714 22.4003 108.939 -0.346928 69.8584 3.40195C30.7773 7.1508 6.51753 41.3181 8.07036 82.3707C9.6232 123.423 48.5773 145.782 81.5171 146.934C114.457 148.087 134.65 129.019 134.65 129.019C134.65 129.019 139.192 124.969 137.411 121.807C135.631 118.644 131.166 122.583 131.166 122.583Z" fill="#FA7179"/>
</svg>
