<svg width="150" height="150" viewBox="0 0 150 150" fill="none" xmlns="http://www.w3.org/2000/svg">
<path fill-rule="evenodd" clip-rule="evenodd" d="M114.414 71.6504C114.406 71.6392 114.402 71.6251 114.405 71.6113L123.591 18.0427C123.596 18.018 123.617 18 123.642 18H126.549C126.572 18 126.592 18.0145 126.598 18.0359L147.296 83.5681C147.302 83.5883 147.295 83.6108 147.278 83.6241L132.018 95.5387C131.995 95.5564 131.962 95.5519 131.945 95.5285L114.414 71.6504ZM3 107.162C3 107.185 3.01429 107.204 3.03541 107.211L34.493 117.497C34.5082 117.502 34.525 117.499 34.5382 117.49L104.853 68.9468C104.865 68.9386 104.873 68.9259 104.875 68.9119L112.415 18.3174C112.42 18.2863 112.396 18.2584 112.365 18.2584H50.0829C50.0675 18.2584 50.0531 18.2652 50.0433 18.277L3.01182 75.0133C3.00418 75.0226 3 75.0341 3 75.0462V107.162ZM47.6015 120.118L81.9682 131.375C81.9837 131.38 82.0009 131.378 82.0141 131.368L122.93 102.019C122.953 102.003 122.958 101.972 122.943 101.949L107.605 79.1238C107.589 79.0999 107.557 79.0937 107.533 79.11L47.6015 120.118Z" fill="#C5B78C"/>
</svg>
