<svg width="150" height="150" viewBox="0 0 150 150" fill="none" xmlns="http://www.w3.org/2000/svg">
<path fill-rule="evenodd" clip-rule="evenodd" d="M3.01437 75.0232C2.99522 74.9906 2.99521 74.9501 3.01435 74.9172L39.2236 13.0518C39.2424 13.0197 39.277 13 39.3142 13H111.083C111.12 13 111.155 13.0199 111.174 13.0523L146.986 74.9177C147.004 74.9501 147.004 74.9903 146.986 75.0227L111.174 136.819C111.155 136.851 111.12 136.871 111.083 136.871H39.3142C39.277 136.871 39.2424 136.851 39.2236 136.819L3.01437 75.0232ZM108.361 74.9355C108.361 93.354 93.4297 108.285 75.0112 108.285C56.5927 108.285 41.6615 93.354 41.6615 74.9355C41.6615 56.5167 56.5927 41.5857 75.0112 41.5857C93.4297 41.5857 108.361 56.5167 108.361 74.9355Z" fill="#5A8EA2"/>
</svg>
