<svg width="150" height="150" viewBox="0 0 150 150" fill="none" xmlns="http://www.w3.org/2000/svg">
<path fill-rule="evenodd" clip-rule="evenodd" d="M121.423 100.457C121.423 126.159 100.51 146.994 74.7117 146.994C48.9135 146.994 28 126.159 28 100.457C28 75.461 72.1849 6.81035 74.6082 3.06407C74.6636 2.97864 74.7601 2.97864 74.8152 3.06407C77.2384 6.81035 121.423 75.461 121.423 100.457ZM66.925 132.074C43.2212 126.888 47.2774 100.63 47.2774 100.63C47.2774 100.63 53.7501 116.481 69.4577 121.615C85.1649 126.75 104.147 119.22 104.147 119.22C104.147 119.22 90.6287 137.261 66.925 132.074Z" fill="#5090D6"/>
</svg>
