<svg width="48" height="48" viewBox="0 0 48 48" fill="none" xmlns="http://www.w3.org/2000/svg">
<g id="User_cicrle_duotone">
<path id="Rectangle 1" d="M6 24C6 14.0589 14.0589 6 24 6C33.9411 6 42 14.0589 42 24C42 33.9411 33.9411 42 24 42C14.0589 42 6 33.9411 6 24Z" fill="#7E869E" fill-opacity="0.25"/>
<circle id="Ellipse 46" cx="24" cy="20" r="8" fill="white"/>
<path id="Intersect" fill-rule="evenodd" clip-rule="evenodd" d="M36.3963 36.4179C36.5411 36.6536 36.4974 36.9573 36.2954 37.1463C33.0777 40.1569 28.7541 42 24 42C19.2459 42 14.9223 40.157 11.7047 37.1465C11.5027 36.9574 11.459 36.6538 11.6037 36.418C13.9474 32.602 18.6193 30 24.0001 30C29.3809 30 34.0526 32.6019 36.3963 36.4179Z" fill="white"/>
</g>
</svg>
